<svg data-v-423bf9ae="" xmlns="http://www.w3.org/2000/svg" viewBox="0 0 426 125" class="iconLeft"><!----><!----><!----><g data-v-423bf9ae="" id="cf56fef4-4136-4d9d-9ecb-613374ddf051" fill="#ffffff" transform="matrix(4.213483213791417,0,0,4.213483213791417,165.9501584341559,1.284583180604777)"><path d="M4.49 19.18Q2.91 19.18 1.95 18.71Q0.99 18.24 0.99 17.40L0.99 17.40Q0.99 17.09 1.16 16.82Q1.32 16.55 1.60 16.38L1.60 16.38Q2.03 17.23 2.78 17.69Q3.53 18.14 4.41 18.14L4.41 18.14Q5.61 18.14 6.34 17.72Q7.07 17.30 7.07 16.52L7.07 16.52Q7.07 16.13 6.78 15.83Q6.50 15.54 6.05 15.34Q5.61 15.13 4.86 14.85L4.86 14.85Q3.82 14.48 3.19 14.14Q2.55 13.80 2.09 13.24Q1.62 12.67 1.62 11.83L1.62 11.83Q1.62 10.92 2.25 10.20Q2.87 9.48 4.00 9.07Q5.12 8.67 6.59 8.67L6.59 8.67Q7.45 8.67 8.13 8.84Q8.81 9.02 9.19 9.32Q9.58 9.63 9.58 10.04L9.58 10.04Q9.58 10.63 9.19 10.94Q8.81 11.26 8.18 11.26L8.18 11.26Q6.90 11.26 6.44 9.74L6.44 9.74Q5.03 9.91 4.23 10.42Q3.43 10.93 3.43 11.63L3.43 11.63Q3.43 12.00 3.71 12.27Q3.99 12.54 4.41 12.73Q4.83 12.92 5.60 13.22L5.60 13.22Q6.62 13.58 7.28 13.92Q7.94 14.25 8.41 14.81Q8.88 15.37 8.88 16.20L8.88 16.20Q8.88 17.01 8.37 17.69Q7.85 18.37 6.87 18.77Q5.88 19.18 4.49 19.18L4.49 19.18ZM12.14 19.18Q11.17 19.18 11.17 18.19L11.17 18.19Q11.17 17.70 11.41 16.35Q11.65 14.99 12.21 12.10L12.21 12.10Q12.75 9.28 12.75 9.28L12.75 9.28L12.14 8.58Q12.46 8.30 12.92 8.14Q13.37 7.98 13.75 7.98L13.75 7.98Q14.14 7.98 14.31 8.16Q14.48 8.33 14.48 8.75L14.48 8.75Q14.48 9.02 14.39 9.44Q14.31 9.87 14.11 10.65L14.11 10.65Q13.73 12.18 13.57 13.02L13.57 13.02L13.71 13.09Q14.48 11.70 15.48 11.07Q16.49 10.43 17.51 10.43L17.51 10.43Q18.41 10.43 18.86 10.89Q19.31 11.34 19.31 12.29L19.31 12.29Q19.31 12.85 19.19 13.45Q19.07 14.06 18.84 14.97L18.84 14.97Q18.58 16.03 18.45 16.71Q18.33 17.39 18.33 18.06L18.33 18.06Q18.33 18.59 18.51 18.79L18.51 18.79Q18.07 19.18 17.61 19.18L17.61 19.18Q17.12 19.18 16.90 18.93Q16.67 18.68 16.67 18.19L16.67 18.19Q16.67 17.65 16.79 16.99Q16.91 16.32 17.14 15.26L17.14 15.26Q17.35 14.38 17.45 13.78Q17.56 13.19 17.56 12.75L17.56 12.75Q17.56 11.62 16.70 11.62L16.70 11.62Q15.85 11.62 14.95 12.46Q14.04 13.30 13.44 14.78Q12.84 16.25 12.84 18.06L12.84 18.06Q12.84 18.58 13.01 18.79L13.01 18.79Q12.60 19.18 12.14 19.18L12.14 19.18ZM24.84 19.18Q23.83 19.18 23.06 18.73Q22.30 18.27 21.89 17.44Q21.48 16.60 21.48 15.50L21.48 15.50Q21.48 14.01 22.10 12.87Q22.72 11.72 23.84 11.07Q24.96 10.43 26.38 10.43L26.38 10.43Q26.96 10.43 27.45 10.54L27.45 10.54Q27.61 10.77 27.64 11.20L27.64 11.20Q26.24 11.20 25.24 11.76Q24.25 12.32 23.73 13.32Q23.21 14.32 23.21 15.60L23.21 15.60Q23.21 16.84 23.67 17.54Q24.14 18.24 24.99 18.24L24.99 18.24Q25.82 18.24 26.48 17.78Q27.15 17.32 27.57 16.46Q28 15.61 28.11 14.48L28.11 14.48Q27.54 14.11 27.28 13.68Q27.02 13.24 27.02 12.66L27.02 12.66Q27.02 12.12 27.34 11.77Q27.66 11.41 28.14 11.41L28.14 11.41Q28.78 11.41 29.15 11.98Q29.51 12.56 29.51 13.58L29.51 13.58Q29.51 15.12 28.89 16.40Q28.27 17.68 27.20 18.43Q26.12 19.18 24.84 19.18L24.84 19.18ZM37.66 10.43Q38.42 10.43 39.00 10.84Q39.58 11.24 39.89 11.99Q40.21 12.74 40.21 13.72L40.21 13.72Q40.21 15.13 39.50 16.30Q38.79 17.47 37.56 18.15Q36.33 18.83 34.85 18.83L34.85 18.83Q34.17 18.83 33.54 18.72L33.54 18.72Q33.47 19.66 33.47 20.40L33.47 20.40Q33.47 20.66 33.56 20.90Q33.64 21.13 33.77 21.24L33.77 21.24Q33.33 21.63 32.72 21.63L32.72 21.63Q31.84 21.63 31.84 20.47L31.84 20.47Q31.84 19.92 32.22 17.37Q32.61 14.81 33.17 11.73L33.17 11.73L32.55 11.03Q32.89 10.77 33.33 10.60Q33.78 10.43 34.16 10.43L34.16 10.43Q34.55 10.43 34.72 10.61Q34.89 10.78 34.89 11.20L34.89 11.20Q34.89 11.55 34.65 12.64L34.65 12.64L34.75 12.71Q35.24 11.62 36.01 11.03Q36.78 10.43 37.66 10.43L37.66 10.43ZM33.61 18.06Q35.08 18.02 36.19 17.47Q37.30 16.91 37.90 15.96Q38.50 15.01 38.50 13.76L38.50 13.76Q38.50 12.81 38.10 12.28Q37.70 11.75 36.99 11.75L36.99 11.75Q34.89 11.75 33.68 17.50L33.68 17.50L33.61 18.06ZM44.90 9.24Q44.45 9.24 44.18 9.02Q43.92 8.81 43.92 8.44L43.92 8.44Q43.92 8.02 44.27 7.71Q44.62 7.39 45.16 7.39L45.16 7.39Q45.63 7.39 45.88 7.61Q46.14 7.83 46.14 8.18L46.14 8.18Q46.14 8.62 45.79 8.93Q45.44 9.24 44.90 9.24L44.90 9.24ZM43.65 19.18Q43.18 19.18 42.94 18.94Q42.70 18.70 42.70 18.19L42.70 18.19Q42.70 17.61 42.97 16.14Q43.25 14.67 43.90 11.72L43.90 11.72L43.29 11.02Q43.62 10.75 44.06 10.59Q44.51 10.43 44.87 10.43L44.87 10.43Q45.29 10.43 45.46 10.61Q45.64 10.78 45.64 11.20L45.64 11.20Q45.64 11.31 45.37 12.40L45.37 12.40Q44.94 14.18 44.65 15.62Q44.37 17.07 44.37 18.06L44.37 18.06Q44.37 18.59 44.62 18.80L44.62 18.80Q44.16 19.18 43.65 19.18L43.65 19.18ZM51.63 9.88Q50.97 9.88 50.53 9.49L50.53 9.49L50.39 9.59L50.97 12.26Q51.76 12.12 52.33 11.94L52.33 11.94Q52.43 12.17 52.43 12.40L52.43 12.40Q52.43 12.84 52.05 13.08Q51.66 13.33 51.06 13.36L51.06 13.36Q50.51 15.40 50.16 17.47Q49.81 19.53 49.81 20.51L49.81 20.51Q49.81 21.04 50.12 21.25L50.12 21.25Q49.52 21.63 49.07 21.63L49.07 21.63Q48.64 21.63 48.39 21.34Q48.15 21.06 48.15 20.54L48.15 20.54Q48.15 19.88 48.43 18.33Q48.72 16.77 49.39 13.51L49.39 13.51Q48.68 13.62 48.13 13.80L48.13 13.80Q48.03 13.58 48.03 13.34L48.03 13.34Q48.03 12.87 48.46 12.64Q48.89 12.40 49.56 12.39L49.56 12.39Q49.45 11.19 49.45 10.42L49.45 10.42Q49.45 9.06 49.99 8.44Q50.54 7.81 51.44 7.81L51.44 7.81Q52.00 7.81 52.36 8.11Q52.72 8.41 52.72 8.88L52.72 8.88Q52.72 9.32 52.42 9.60Q52.11 9.88 51.63 9.88L51.63 9.88ZM60.98 10.43Q61.70 10.43 61.70 11.27L61.70 11.27Q61.70 13.54 60.69 15.96Q59.68 18.38 57.85 20.01Q56.03 21.63 53.69 21.63L53.69 21.63Q52.81 21.63 52.37 21.32Q51.94 21.01 51.94 20.48L51.94 20.48Q51.94 20.29 52.02 20.07Q52.11 19.85 52.22 19.68L52.22 19.68Q52.51 20.02 52.91 20.23Q53.30 20.44 54.01 20.44L54.01 20.44Q54.64 20.44 55.45 20.13Q56.25 19.81 57.02 19.17L57.02 19.17Q56.00 19.08 55.50 18.44Q55.01 17.79 54.88 16.92Q54.75 16.04 54.71 14.60L54.71 14.60Q54.68 13.54 54.63 12.91Q54.57 12.28 54.39 11.70Q54.21 11.13 53.82 10.78L53.82 10.78Q54.26 10.43 54.78 10.43L54.78 10.43Q55.52 10.43 55.87 10.96Q56.21 11.48 56.29 12.24Q56.36 13.01 56.36 14.32L56.36 14.32Q56.38 15.60 56.45 16.35Q56.52 17.11 56.81 17.71Q57.11 18.31 57.74 18.48L57.74 18.48Q58.79 17.36 59.41 15.63Q60.03 13.90 60.03 11.55L60.03 11.55Q60.03 10.98 60.00 10.78L60.00 10.78Q60.33 10.58 60.54 10.51Q60.75 10.43 60.98 10.43L60.98 10.43Z"></path></g><!----><g data-v-423bf9ae="" id="f5b55b00-fa13-4947-9b7c-8fc25f9edfd1" transform="matrix(1.1777777777777778,0,0,1.1777777777777778,0.9392478095160612,-12.37777777777778)" stroke="none" fill="#D8D961"><path d="M3 11a3 3 0 100 6c1.301 0 2.397-.842 2.813-2h7.688l18.375 63.781v.031c-.017.014-.035.084 0 .063l-.031.063-8.031 19.344c1.449-.772 3.093-1.196 4.844-1.25l6.813-16.438h.031l.031-.125c.272-.588.376-1.085.375-1.563h77.188c1.6 0 3.294-1.306 3.594-2.906l10.719-50.094c.3-1.6-.706-2.906-2.406-2.906H19.94l-2.813-9.781v-.063h-.031C16.722 11.811 15.467 11 14.19 11H3.002zm26 88c-4.971 0-9 4.029-9 9s4.029 9 9 9 9-4.029 9-9-4.029-9-9-9zm74 0c-4.971 0-9 4.029-9 9s4.029 9 9 9 9-4.029 9-9-4.029-9-9-9zm-65.5 2a10.89 10.89 0 012.063 4h52.875c.418-1.487 1.109-2.843 2.063-4h-57z"></path></g><!----></svg>